<mxfile host="app.diagrams.net" agent="Mozilla/5.0 (Macintosh; Intel Mac OS X 10_15_7) AppleWebKit/537.36 (KHTML, like Gecko) Chrome/116.0.0.0 Safari/537.36" version="24.7.12">
  <diagram name="PÃ¡gina-1" id="JsaglUnUG5shwMhrXOON">
    <mxGraphModel dx="1434" dy="726" grid="1" gridSize="10" guides="1" tooltips="1" connect="1" arrows="1" fold="1" page="1" pageScale="1" pageWidth="827" pageHeight="1169" math="0" shadow="0">
      <root>
        <mxCell id="0" />
        <mxCell id="1" parent="0" />
        <mxCell id="42dbZu4mk9yZ3GS8qLwK-1" value="A" style="whiteSpace=wrap;html=1;align=center;" vertex="1" parent="1">
          <mxGeometry x="160" y="210" width="70" height="40" as="geometry" />
        </mxCell>
        <mxCell id="42dbZu4mk9yZ3GS8qLwK-2" value="a1" style="ellipse;whiteSpace=wrap;html=1;align=center;fontStyle=4;" vertex="1" parent="1">
          <mxGeometry x="110" y="120" width="60" height="40" as="geometry" />
        </mxCell>
        <mxCell id="42dbZu4mk9yZ3GS8qLwK-3" value="a2" style="ellipse;whiteSpace=wrap;html=1;align=center;fontStyle=4;" vertex="1" parent="1">
          <mxGeometry x="200" y="120" width="60" height="40" as="geometry" />
        </mxCell>
        <mxCell id="42dbZu4mk9yZ3GS8qLwK-4" value="a3" style="ellipse;whiteSpace=wrap;html=1;align=center;" vertex="1" parent="1">
          <mxGeometry x="260" y="170" width="56" height="40" as="geometry" />
        </mxCell>
        <mxCell id="42dbZu4mk9yZ3GS8qLwK-5" value="a4" style="ellipse;whiteSpace=wrap;html=1;align=center;" vertex="1" parent="1">
          <mxGeometry x="70" y="180" width="56" height="40" as="geometry" />
        </mxCell>
        <mxCell id="42dbZu4mk9yZ3GS8qLwK-6" value="" style="endArrow=none;html=1;rounded=0;entryX=1;entryY=1;entryDx=0;entryDy=0;exitX=0.369;exitY=0;exitDx=0;exitDy=0;exitPerimeter=0;" edge="1" parent="1" source="42dbZu4mk9yZ3GS8qLwK-1" target="42dbZu4mk9yZ3GS8qLwK-2">
          <mxGeometry width="50" height="50" relative="1" as="geometry">
            <mxPoint x="160" y="220" as="sourcePoint" />
            <mxPoint x="210" y="170" as="targetPoint" />
          </mxGeometry>
        </mxCell>
        <mxCell id="42dbZu4mk9yZ3GS8qLwK-7" value="" style="endArrow=none;html=1;rounded=0;entryX=0.25;entryY=0.979;entryDx=0;entryDy=0;exitX=0.643;exitY=-0.021;exitDx=0;exitDy=0;exitPerimeter=0;entryPerimeter=0;" edge="1" parent="1" source="42dbZu4mk9yZ3GS8qLwK-1" target="42dbZu4mk9yZ3GS8qLwK-3">
          <mxGeometry width="50" height="50" relative="1" as="geometry">
            <mxPoint x="196" y="220" as="sourcePoint" />
            <mxPoint x="171" y="164" as="targetPoint" />
          </mxGeometry>
        </mxCell>
        <mxCell id="42dbZu4mk9yZ3GS8qLwK-8" value="" style="endArrow=none;html=1;rounded=0;entryX=-0.03;entryY=0.646;entryDx=0;entryDy=0;exitX=1;exitY=0.25;exitDx=0;exitDy=0;entryPerimeter=0;" edge="1" parent="1" source="42dbZu4mk9yZ3GS8qLwK-1" target="42dbZu4mk9yZ3GS8qLwK-4">
          <mxGeometry width="50" height="50" relative="1" as="geometry">
            <mxPoint x="215" y="219" as="sourcePoint" />
            <mxPoint x="225" y="169" as="targetPoint" />
          </mxGeometry>
        </mxCell>
        <mxCell id="42dbZu4mk9yZ3GS8qLwK-9" value="" style="endArrow=none;html=1;rounded=0;entryX=0.967;entryY=0.771;entryDx=0;entryDy=0;exitX=0;exitY=0.5;exitDx=0;exitDy=0;entryPerimeter=0;" edge="1" parent="1" source="42dbZu4mk9yZ3GS8qLwK-1" target="42dbZu4mk9yZ3GS8qLwK-5">
          <mxGeometry width="50" height="50" relative="1" as="geometry">
            <mxPoint x="240" y="230" as="sourcePoint" />
            <mxPoint x="268" y="206" as="targetPoint" />
          </mxGeometry>
        </mxCell>
        <mxCell id="42dbZu4mk9yZ3GS8qLwK-10" value="C" style="whiteSpace=wrap;html=1;align=center;" vertex="1" parent="1">
          <mxGeometry x="470" y="210" width="70" height="40" as="geometry" />
        </mxCell>
        <mxCell id="42dbZu4mk9yZ3GS8qLwK-11" value="" style="rhombus;whiteSpace=wrap;html=1;" vertex="1" parent="1">
          <mxGeometry x="330" y="205" width="50" height="50" as="geometry" />
        </mxCell>
        <mxCell id="42dbZu4mk9yZ3GS8qLwK-12" value="" style="edgeStyle=none;orthogonalLoop=1;jettySize=auto;html=1;rounded=0;entryX=0;entryY=0.5;entryDx=0;entryDy=0;endArrow=none;endFill=0;" edge="1" parent="1" target="42dbZu4mk9yZ3GS8qLwK-10">
          <mxGeometry width="100" relative="1" as="geometry">
            <mxPoint x="380" y="230" as="sourcePoint" />
            <mxPoint x="430" y="230" as="targetPoint" />
            <Array as="points" />
          </mxGeometry>
        </mxCell>
        <mxCell id="42dbZu4mk9yZ3GS8qLwK-13" value="" style="endArrow=none;html=1;rounded=0;entryX=0;entryY=0.5;entryDx=0;entryDy=0;exitX=1;exitY=0.5;exitDx=0;exitDy=0;" edge="1" parent="1" source="42dbZu4mk9yZ3GS8qLwK-1" target="42dbZu4mk9yZ3GS8qLwK-11">
          <mxGeometry width="50" height="50" relative="1" as="geometry">
            <mxPoint x="290" y="400" as="sourcePoint" />
            <mxPoint x="340" y="350" as="targetPoint" />
          </mxGeometry>
        </mxCell>
        <mxCell id="42dbZu4mk9yZ3GS8qLwK-14" value="N" style="text;html=1;align=center;verticalAlign=middle;resizable=0;points=[];autosize=1;strokeColor=none;fillColor=none;" vertex="1" parent="1">
          <mxGeometry x="440" y="205" width="30" height="30" as="geometry" />
        </mxCell>
        <mxCell id="42dbZu4mk9yZ3GS8qLwK-15" value="c1" style="ellipse;whiteSpace=wrap;html=1;align=center;fontStyle=4;" vertex="1" parent="1">
          <mxGeometry x="414" y="130" width="60" height="40" as="geometry" />
        </mxCell>
        <mxCell id="42dbZu4mk9yZ3GS8qLwK-16" value="c2" style="ellipse;whiteSpace=wrap;html=1;align=center;" vertex="1" parent="1">
          <mxGeometry x="484" y="100" width="56" height="40" as="geometry" />
        </mxCell>
        <mxCell id="42dbZu4mk9yZ3GS8qLwK-17" value="c3" style="ellipse;whiteSpace=wrap;html=1;align=center;" vertex="1" parent="1">
          <mxGeometry x="570" y="110" width="56" height="40" as="geometry" />
        </mxCell>
        <mxCell id="42dbZu4mk9yZ3GS8qLwK-18" value="c4" style="ellipse;whiteSpace=wrap;html=1;align=center;" vertex="1" parent="1">
          <mxGeometry x="600" y="160" width="56" height="40" as="geometry" />
        </mxCell>
        <mxCell id="42dbZu4mk9yZ3GS8qLwK-19" value="" style="endArrow=none;html=1;rounded=0;entryX=0.767;entryY=1;entryDx=0;entryDy=0;exitX=0.25;exitY=0;exitDx=0;exitDy=0;entryPerimeter=0;" edge="1" parent="1" source="42dbZu4mk9yZ3GS8qLwK-10" target="42dbZu4mk9yZ3GS8qLwK-15">
          <mxGeometry width="50" height="50" relative="1" as="geometry">
            <mxPoint x="240" y="230" as="sourcePoint" />
            <mxPoint x="268" y="206" as="targetPoint" />
          </mxGeometry>
        </mxCell>
        <mxCell id="42dbZu4mk9yZ3GS8qLwK-20" value="" style="endArrow=none;html=1;rounded=0;entryX=0.5;entryY=1;entryDx=0;entryDy=0;exitX=0.5;exitY=0;exitDx=0;exitDy=0;" edge="1" parent="1" source="42dbZu4mk9yZ3GS8qLwK-10" target="42dbZu4mk9yZ3GS8qLwK-16">
          <mxGeometry width="50" height="50" relative="1" as="geometry">
            <mxPoint x="498" y="220" as="sourcePoint" />
            <mxPoint x="470" y="180" as="targetPoint" />
          </mxGeometry>
        </mxCell>
        <mxCell id="42dbZu4mk9yZ3GS8qLwK-21" value="" style="endArrow=none;html=1;rounded=0;exitX=0.75;exitY=0;exitDx=0;exitDy=0;" edge="1" parent="1" source="42dbZu4mk9yZ3GS8qLwK-10" target="42dbZu4mk9yZ3GS8qLwK-17">
          <mxGeometry width="50" height="50" relative="1" as="geometry">
            <mxPoint x="515" y="220" as="sourcePoint" />
            <mxPoint x="522" y="150" as="targetPoint" />
          </mxGeometry>
        </mxCell>
        <mxCell id="42dbZu4mk9yZ3GS8qLwK-22" value="" style="endArrow=none;html=1;rounded=0;exitX=1;exitY=0.25;exitDx=0;exitDy=0;entryX=-0.06;entryY=0.646;entryDx=0;entryDy=0;entryPerimeter=0;" edge="1" parent="1" source="42dbZu4mk9yZ3GS8qLwK-10" target="42dbZu4mk9yZ3GS8qLwK-18">
          <mxGeometry width="50" height="50" relative="1" as="geometry">
            <mxPoint x="533" y="220" as="sourcePoint" />
            <mxPoint x="592" y="157" as="targetPoint" />
          </mxGeometry>
        </mxCell>
        <mxCell id="42dbZu4mk9yZ3GS8qLwK-23" value="c" style="shape=hexagon;perimeter=hexagonPerimeter2;whiteSpace=wrap;html=1;fixedSize=1;" vertex="1" parent="1">
          <mxGeometry x="457.5" y="310" width="95" height="40" as="geometry" />
        </mxCell>
        <mxCell id="42dbZu4mk9yZ3GS8qLwK-24" value="" style="endArrow=none;html=1;rounded=0;entryX=0.5;entryY=1;entryDx=0;entryDy=0;exitX=0.5;exitY=0;exitDx=0;exitDy=0;" edge="1" parent="1" source="42dbZu4mk9yZ3GS8qLwK-23" target="42dbZu4mk9yZ3GS8qLwK-10">
          <mxGeometry width="50" height="50" relative="1" as="geometry">
            <mxPoint x="240" y="230" as="sourcePoint" />
            <mxPoint x="268" y="206" as="targetPoint" />
          </mxGeometry>
        </mxCell>
        <mxCell id="42dbZu4mk9yZ3GS8qLwK-25" value="E" style="whiteSpace=wrap;html=1;align=center;" vertex="1" parent="1">
          <mxGeometry x="420" y="414.5" width="70" height="40" as="geometry" />
        </mxCell>
        <mxCell id="42dbZu4mk9yZ3GS8qLwK-26" value="F" style="whiteSpace=wrap;html=1;align=center;" vertex="1" parent="1">
          <mxGeometry x="520" y="414.5" width="70" height="40" as="geometry" />
        </mxCell>
        <mxCell id="42dbZu4mk9yZ3GS8qLwK-28" value="" style="endArrow=none;html=1;rounded=0;entryX=0.5;entryY=1;entryDx=0;entryDy=0;exitX=0.5;exitY=0;exitDx=0;exitDy=0;" edge="1" parent="1" source="42dbZu4mk9yZ3GS8qLwK-26" target="42dbZu4mk9yZ3GS8qLwK-23">
          <mxGeometry width="50" height="50" relative="1" as="geometry">
            <mxPoint x="515" y="320" as="sourcePoint" />
            <mxPoint x="515" y="260" as="targetPoint" />
          </mxGeometry>
        </mxCell>
        <mxCell id="42dbZu4mk9yZ3GS8qLwK-30" value="" style="endArrow=none;html=1;rounded=0;entryX=0.5;entryY=0;entryDx=0;entryDy=0;exitX=0.375;exitY=1;exitDx=0;exitDy=0;" edge="1" parent="1" source="42dbZu4mk9yZ3GS8qLwK-23" target="42dbZu4mk9yZ3GS8qLwK-25">
          <mxGeometry width="50" height="50" relative="1" as="geometry">
            <mxPoint x="615" y="420" as="sourcePoint" />
            <mxPoint x="527" y="360" as="targetPoint" />
          </mxGeometry>
        </mxCell>
        <mxCell id="42dbZu4mk9yZ3GS8qLwK-31" value="e1" style="ellipse;whiteSpace=wrap;html=1;align=center;" vertex="1" parent="1">
          <mxGeometry x="350" y="474.5" width="56" height="40" as="geometry" />
        </mxCell>
        <mxCell id="42dbZu4mk9yZ3GS8qLwK-32" value="e2" style="ellipse;whiteSpace=wrap;html=1;align=center;" vertex="1" parent="1">
          <mxGeometry x="420" y="484.5" width="56" height="40" as="geometry" />
        </mxCell>
        <mxCell id="42dbZu4mk9yZ3GS8qLwK-33" value="" style="endArrow=none;html=1;rounded=0;exitX=0.25;exitY=1;exitDx=0;exitDy=0;" edge="1" parent="1" source="42dbZu4mk9yZ3GS8qLwK-25" target="42dbZu4mk9yZ3GS8qLwK-31">
          <mxGeometry width="50" height="50" relative="1" as="geometry">
            <mxPoint x="533" y="359.5" as="sourcePoint" />
            <mxPoint x="465" y="424.5" as="targetPoint" />
          </mxGeometry>
        </mxCell>
        <mxCell id="42dbZu4mk9yZ3GS8qLwK-34" value="" style="endArrow=none;html=1;rounded=0;exitX=0.5;exitY=1;exitDx=0;exitDy=0;" edge="1" parent="1" source="42dbZu4mk9yZ3GS8qLwK-25" target="42dbZu4mk9yZ3GS8qLwK-32">
          <mxGeometry width="50" height="50" relative="1" as="geometry">
            <mxPoint x="448" y="464.5" as="sourcePoint" />
            <mxPoint x="408" y="490.5" as="targetPoint" />
          </mxGeometry>
        </mxCell>
        <mxCell id="42dbZu4mk9yZ3GS8qLwK-35" value="f1" style="ellipse;whiteSpace=wrap;html=1;align=center;" vertex="1" parent="1">
          <mxGeometry x="490" y="484.5" width="56" height="40" as="geometry" />
        </mxCell>
        <mxCell id="42dbZu4mk9yZ3GS8qLwK-36" value="f2" style="ellipse;whiteSpace=wrap;html=1;align=center;" vertex="1" parent="1">
          <mxGeometry x="527" y="530" width="56" height="40" as="geometry" />
        </mxCell>
        <mxCell id="42dbZu4mk9yZ3GS8qLwK-37" value="f3" style="ellipse;whiteSpace=wrap;html=1;align=center;" vertex="1" parent="1">
          <mxGeometry x="580" y="504.5" width="56" height="40" as="geometry" />
        </mxCell>
        <mxCell id="42dbZu4mk9yZ3GS8qLwK-38" value="" style="endArrow=none;html=1;rounded=0;exitX=0.25;exitY=1;exitDx=0;exitDy=0;entryX=0.5;entryY=0;entryDx=0;entryDy=0;" edge="1" parent="1" source="42dbZu4mk9yZ3GS8qLwK-26" target="42dbZu4mk9yZ3GS8qLwK-35">
          <mxGeometry width="50" height="50" relative="1" as="geometry">
            <mxPoint x="448" y="464.5" as="sourcePoint" />
            <mxPoint x="408" y="490.5" as="targetPoint" />
          </mxGeometry>
        </mxCell>
        <mxCell id="42dbZu4mk9yZ3GS8qLwK-39" value="" style="endArrow=none;html=1;rounded=0;exitX=0.5;exitY=1;exitDx=0;exitDy=0;" edge="1" parent="1" source="42dbZu4mk9yZ3GS8qLwK-26" target="42dbZu4mk9yZ3GS8qLwK-36">
          <mxGeometry width="50" height="50" relative="1" as="geometry">
            <mxPoint x="548" y="464.5" as="sourcePoint" />
            <mxPoint x="528" y="494.5" as="targetPoint" />
          </mxGeometry>
        </mxCell>
        <mxCell id="42dbZu4mk9yZ3GS8qLwK-40" value="" style="endArrow=none;html=1;rounded=0;exitX=0.75;exitY=1;exitDx=0;exitDy=0;" edge="1" parent="1" source="42dbZu4mk9yZ3GS8qLwK-26" target="42dbZu4mk9yZ3GS8qLwK-37">
          <mxGeometry width="50" height="50" relative="1" as="geometry">
            <mxPoint x="565" y="464.5" as="sourcePoint" />
            <mxPoint x="565" y="554.5" as="targetPoint" />
          </mxGeometry>
        </mxCell>
        <mxCell id="42dbZu4mk9yZ3GS8qLwK-41" value="K" style="shape=ext;margin=3;double=1;whiteSpace=wrap;html=1;align=center;" vertex="1" parent="1">
          <mxGeometry x="780" y="210" width="73" height="40" as="geometry" />
        </mxCell>
        <mxCell id="42dbZu4mk9yZ3GS8qLwK-42" value="" style="rhombus;whiteSpace=wrap;html=1;" vertex="1" parent="1">
          <mxGeometry x="636" y="210" width="50" height="50" as="geometry" />
        </mxCell>
        <mxCell id="42dbZu4mk9yZ3GS8qLwK-43" value="" style="edgeStyle=none;orthogonalLoop=1;jettySize=auto;html=1;rounded=0;entryX=0;entryY=0.5;entryDx=0;entryDy=0;endArrow=none;endFill=0;exitX=1;exitY=0.5;exitDx=0;exitDy=0;shape=link;" edge="1" parent="1" source="42dbZu4mk9yZ3GS8qLwK-42">
          <mxGeometry width="100" relative="1" as="geometry">
            <mxPoint x="690" y="235" as="sourcePoint" />
            <mxPoint x="780" y="235" as="targetPoint" />
          </mxGeometry>
        </mxCell>
        <mxCell id="42dbZu4mk9yZ3GS8qLwK-44" value="" style="edgeStyle=none;orthogonalLoop=1;jettySize=auto;html=1;rounded=0;entryX=0;entryY=0.5;entryDx=0;entryDy=0;endArrow=none;endFill=0;exitX=1;exitY=0.625;exitDx=0;exitDy=0;exitPerimeter=0;" edge="1" parent="1" source="42dbZu4mk9yZ3GS8qLwK-10" target="42dbZu4mk9yZ3GS8qLwK-42">
          <mxGeometry width="100" relative="1" as="geometry">
            <mxPoint x="696" y="245" as="sourcePoint" />
            <mxPoint x="790" y="245" as="targetPoint" />
            <Array as="points" />
          </mxGeometry>
        </mxCell>
        <mxCell id="42dbZu4mk9yZ3GS8qLwK-45" value="1" style="text;html=1;align=center;verticalAlign=middle;resizable=0;points=[];autosize=1;strokeColor=none;fillColor=none;" vertex="1" parent="1">
          <mxGeometry x="545" y="208" width="30" height="30" as="geometry" />
        </mxCell>
        <mxCell id="42dbZu4mk9yZ3GS8qLwK-46" value="N" style="text;html=1;align=center;verticalAlign=middle;resizable=0;points=[];autosize=1;strokeColor=none;fillColor=none;" vertex="1" parent="1">
          <mxGeometry x="755" y="208" width="30" height="30" as="geometry" />
        </mxCell>
        <mxCell id="42dbZu4mk9yZ3GS8qLwK-48" value="k2" style="ellipse;whiteSpace=wrap;html=1;align=center;" vertex="1" parent="1">
          <mxGeometry x="827" y="140" width="56" height="40" as="geometry" />
        </mxCell>
        <mxCell id="42dbZu4mk9yZ3GS8qLwK-49" value="" style="endArrow=none;html=1;rounded=0;entryX=0.597;entryY=1.021;entryDx=0;entryDy=0;exitX=0.25;exitY=0;exitDx=0;exitDy=0;entryPerimeter=0;" edge="1" parent="1" source="42dbZu4mk9yZ3GS8qLwK-41">
          <mxGeometry width="50" height="50" relative="1" as="geometry">
            <mxPoint x="498" y="220" as="sourcePoint" />
            <mxPoint x="775.8199999999999" y="180.84000000000003" as="targetPoint" />
          </mxGeometry>
        </mxCell>
        <mxCell id="42dbZu4mk9yZ3GS8qLwK-50" value="" style="endArrow=none;html=1;rounded=0;entryX=0;entryY=1;entryDx=0;entryDy=0;exitX=0.5;exitY=0;exitDx=0;exitDy=0;" edge="1" parent="1" source="42dbZu4mk9yZ3GS8qLwK-41" target="42dbZu4mk9yZ3GS8qLwK-48">
          <mxGeometry width="50" height="50" relative="1" as="geometry">
            <mxPoint x="808" y="220" as="sourcePoint" />
            <mxPoint x="786" y="191" as="targetPoint" />
          </mxGeometry>
        </mxCell>
        <mxCell id="42dbZu4mk9yZ3GS8qLwK-52" value="J" style="whiteSpace=wrap;html=1;align=center;" vertex="1" parent="1">
          <mxGeometry x="936" y="268" width="70" height="40" as="geometry" />
        </mxCell>
        <mxCell id="42dbZu4mk9yZ3GS8qLwK-53" value="&lt;span style=&quot;border-bottom: 1px dotted&quot;&gt;k1&lt;/span&gt;" style="ellipse;whiteSpace=wrap;html=1;align=center;" vertex="1" parent="1">
          <mxGeometry x="735" y="150" width="50" height="40" as="geometry" />
        </mxCell>
        <mxCell id="42dbZu4mk9yZ3GS8qLwK-54" value="j1" style="ellipse;whiteSpace=wrap;html=1;align=center;fontStyle=4;" vertex="1" parent="1">
          <mxGeometry x="906" y="200" width="60" height="40" as="geometry" />
        </mxCell>
        <mxCell id="42dbZu4mk9yZ3GS8qLwK-55" value="j2" style="ellipse;whiteSpace=wrap;html=1;align=center;" vertex="1" parent="1">
          <mxGeometry x="986" y="200" width="56" height="40" as="geometry" />
        </mxCell>
        <mxCell id="42dbZu4mk9yZ3GS8qLwK-56" value="" style="endArrow=none;html=1;rounded=0;entryX=0.681;entryY=0.979;entryDx=0;entryDy=0;exitX=0.25;exitY=0;exitDx=0;exitDy=0;entryPerimeter=0;" edge="1" parent="1" source="42dbZu4mk9yZ3GS8qLwK-52" target="42dbZu4mk9yZ3GS8qLwK-54">
          <mxGeometry width="50" height="50" relative="1" as="geometry">
            <mxPoint x="714" y="280" as="sourcePoint" />
            <mxPoint x="691.8199999999999" y="250.84000000000003" as="targetPoint" />
          </mxGeometry>
        </mxCell>
        <mxCell id="42dbZu4mk9yZ3GS8qLwK-57" value="" style="endArrow=none;html=1;rounded=0;entryX=0.268;entryY=0.938;entryDx=0;entryDy=0;entryPerimeter=0;exitX=0.429;exitY=0.021;exitDx=0;exitDy=0;exitPerimeter=0;" edge="1" parent="1" source="42dbZu4mk9yZ3GS8qLwK-52" target="42dbZu4mk9yZ3GS8qLwK-55">
          <mxGeometry width="50" height="50" relative="1" as="geometry">
            <mxPoint x="986" y="270" as="sourcePoint" />
            <mxPoint x="957" y="249" as="targetPoint" />
          </mxGeometry>
        </mxCell>
        <mxCell id="42dbZu4mk9yZ3GS8qLwK-58" value="H" style="whiteSpace=wrap;html=1;align=center;" vertex="1" parent="1">
          <mxGeometry x="785" y="468" width="70" height="40" as="geometry" />
        </mxCell>
        <mxCell id="42dbZu4mk9yZ3GS8qLwK-59" value="h1" style="ellipse;whiteSpace=wrap;html=1;align=center;fontStyle=4;" vertex="1" parent="1">
          <mxGeometry x="735" y="552.5" width="60" height="40" as="geometry" />
        </mxCell>
        <mxCell id="42dbZu4mk9yZ3GS8qLwK-60" value="h2" style="ellipse;whiteSpace=wrap;html=1;align=center;" vertex="1" parent="1">
          <mxGeometry x="792" y="592.5" width="56" height="40" as="geometry" />
        </mxCell>
        <mxCell id="42dbZu4mk9yZ3GS8qLwK-61" value="h3" style="ellipse;whiteSpace=wrap;html=1;align=center;" vertex="1" parent="1">
          <mxGeometry x="855" y="558" width="56" height="40" as="geometry" />
        </mxCell>
        <mxCell id="42dbZu4mk9yZ3GS8qLwK-62" value="" style="endArrow=none;html=1;rounded=0;entryX=1;entryY=0;entryDx=0;entryDy=0;" edge="1" parent="1" source="42dbZu4mk9yZ3GS8qLwK-58" target="42dbZu4mk9yZ3GS8qLwK-59">
          <mxGeometry width="50" height="50" relative="1" as="geometry">
            <mxPoint x="813" y="356" as="sourcePoint" />
            <mxPoint x="806" y="327" as="targetPoint" />
          </mxGeometry>
        </mxCell>
        <mxCell id="42dbZu4mk9yZ3GS8qLwK-63" value="" style="endArrow=none;html=1;rounded=0;entryX=0.5;entryY=0;entryDx=0;entryDy=0;exitX=0.5;exitY=1;exitDx=0;exitDy=0;" edge="1" parent="1" source="42dbZu4mk9yZ3GS8qLwK-58" target="42dbZu4mk9yZ3GS8qLwK-60">
          <mxGeometry width="50" height="50" relative="1" as="geometry">
            <mxPoint x="820" y="518" as="sourcePoint" />
            <mxPoint x="796" y="568" as="targetPoint" />
          </mxGeometry>
        </mxCell>
        <mxCell id="42dbZu4mk9yZ3GS8qLwK-64" value="" style="endArrow=none;html=1;rounded=0;entryX=0;entryY=0;entryDx=0;entryDy=0;exitX=0.75;exitY=1;exitDx=0;exitDy=0;" edge="1" parent="1" source="42dbZu4mk9yZ3GS8qLwK-58" target="42dbZu4mk9yZ3GS8qLwK-61">
          <mxGeometry width="50" height="50" relative="1" as="geometry">
            <mxPoint x="830" y="518" as="sourcePoint" />
            <mxPoint x="830" y="603" as="targetPoint" />
          </mxGeometry>
        </mxCell>
        <mxCell id="42dbZu4mk9yZ3GS8qLwK-66" value="m2" style="ellipse;whiteSpace=wrap;html=1;align=center;" vertex="1" parent="1">
          <mxGeometry x="1206" y="454.5" width="56" height="40" as="geometry" />
        </mxCell>
        <mxCell id="42dbZu4mk9yZ3GS8qLwK-67" value="m3" style="ellipse;whiteSpace=wrap;html=1;align=center;" vertex="1" parent="1">
          <mxGeometry x="1269" y="420" width="56" height="40" as="geometry" />
        </mxCell>
        <mxCell id="42dbZu4mk9yZ3GS8qLwK-68" value="m1" style="ellipse;whiteSpace=wrap;html=1;align=center;fontStyle=4;" vertex="1" parent="1">
          <mxGeometry x="1226" y="350" width="60" height="40" as="geometry" />
        </mxCell>
        <mxCell id="42dbZu4mk9yZ3GS8qLwK-69" value="" style="endArrow=none;html=1;rounded=0;entryX=1;entryY=0.25;entryDx=0;entryDy=0;exitX=0;exitY=1;exitDx=0;exitDy=0;" edge="1" parent="1" source="42dbZu4mk9yZ3GS8qLwK-68" target="42dbZu4mk9yZ3GS8qLwK-76">
          <mxGeometry width="50" height="50" relative="1" as="geometry">
            <mxPoint x="996" y="516" as="sourcePoint" />
            <mxPoint x="1196" y="390" as="targetPoint" />
          </mxGeometry>
        </mxCell>
        <mxCell id="42dbZu4mk9yZ3GS8qLwK-70" value="" style="endArrow=none;html=1;rounded=0;entryX=1;entryY=0.5;entryDx=0;entryDy=0;exitX=0.021;exitY=0.354;exitDx=0;exitDy=0;exitPerimeter=0;" edge="1" parent="1" source="42dbZu4mk9yZ3GS8qLwK-67" target="42dbZu4mk9yZ3GS8qLwK-76">
          <mxGeometry width="50" height="50" relative="1" as="geometry">
            <mxPoint x="1245" y="374" as="sourcePoint" />
            <mxPoint x="1196" y="400" as="targetPoint" />
          </mxGeometry>
        </mxCell>
        <mxCell id="42dbZu4mk9yZ3GS8qLwK-71" value="" style="endArrow=none;html=1;rounded=0;entryX=1;entryY=0.75;entryDx=0;entryDy=0;exitX=0.5;exitY=0;exitDx=0;exitDy=0;" edge="1" parent="1" source="42dbZu4mk9yZ3GS8qLwK-66" target="42dbZu4mk9yZ3GS8qLwK-76">
          <mxGeometry width="50" height="50" relative="1" as="geometry">
            <mxPoint x="1280" y="424" as="sourcePoint" />
            <mxPoint x="1196" y="410" as="targetPoint" />
          </mxGeometry>
        </mxCell>
        <mxCell id="42dbZu4mk9yZ3GS8qLwK-76" value="M" style="shape=ext;margin=3;double=1;whiteSpace=wrap;html=1;align=center;" vertex="1" parent="1">
          <mxGeometry x="1120" y="400" width="73" height="40" as="geometry" />
        </mxCell>
        <mxCell id="42dbZu4mk9yZ3GS8qLwK-77" value="" style="rhombus;whiteSpace=wrap;html=1;" vertex="1" parent="1">
          <mxGeometry x="993" y="434.5" width="50" height="50" as="geometry" />
        </mxCell>
        <mxCell id="42dbZu4mk9yZ3GS8qLwK-78" value="" style="edgeStyle=none;orthogonalLoop=1;jettySize=auto;html=1;rounded=0;entryX=0;entryY=0.5;entryDx=0;entryDy=0;endArrow=none;endFill=0;exitX=1;exitY=0;exitDx=0;exitDy=0;shape=link;" edge="1" parent="1" source="42dbZu4mk9yZ3GS8qLwK-77" target="42dbZu4mk9yZ3GS8qLwK-76">
          <mxGeometry width="100" relative="1" as="geometry">
            <mxPoint x="602" y="305" as="sourcePoint" />
            <mxPoint x="696" y="305" as="targetPoint" />
          </mxGeometry>
        </mxCell>
        <mxCell id="42dbZu4mk9yZ3GS8qLwK-79" value="" style="edgeStyle=none;orthogonalLoop=1;jettySize=auto;html=1;rounded=0;entryX=0.207;entryY=0.643;entryDx=0;entryDy=0;endArrow=none;endFill=0;exitX=1;exitY=0.5;exitDx=0;exitDy=0;entryPerimeter=0;" edge="1" parent="1" source="42dbZu4mk9yZ3GS8qLwK-58" target="42dbZu4mk9yZ3GS8qLwK-77">
          <mxGeometry width="100" relative="1" as="geometry">
            <mxPoint x="308" y="307.5" as="sourcePoint" />
            <mxPoint x="900.5" y="440" as="targetPoint" />
            <Array as="points" />
          </mxGeometry>
        </mxCell>
        <mxCell id="42dbZu4mk9yZ3GS8qLwK-80" value="1" style="text;html=1;align=center;verticalAlign=middle;resizable=0;points=[];autosize=1;strokeColor=none;fillColor=none;" vertex="1" parent="1">
          <mxGeometry x="853" y="450.5" width="30" height="30" as="geometry" />
        </mxCell>
        <mxCell id="42dbZu4mk9yZ3GS8qLwK-81" value="N" style="text;html=1;align=center;verticalAlign=middle;resizable=0;points=[];autosize=1;strokeColor=none;fillColor=none;" vertex="1" parent="1">
          <mxGeometry x="1101" y="368" width="30" height="30" as="geometry" />
        </mxCell>
        <mxCell id="42dbZu4mk9yZ3GS8qLwK-82" value="" style="rhombus;whiteSpace=wrap;html=1;" vertex="1" parent="1">
          <mxGeometry x="1091" y="280" width="50" height="50" as="geometry" />
        </mxCell>
        <mxCell id="42dbZu4mk9yZ3GS8qLwK-83" value="" style="edgeStyle=none;orthogonalLoop=1;jettySize=auto;html=1;rounded=0;entryX=1;entryY=1;entryDx=0;entryDy=0;endArrow=none;endFill=0;exitX=0.342;exitY=0.021;exitDx=0;exitDy=0;exitPerimeter=0;" edge="1" parent="1" source="42dbZu4mk9yZ3GS8qLwK-76" target="42dbZu4mk9yZ3GS8qLwK-82">
          <mxGeometry width="100" relative="1" as="geometry">
            <mxPoint x="1013" y="496" as="sourcePoint" />
            <mxPoint x="1059" y="448" as="targetPoint" />
            <Array as="points" />
          </mxGeometry>
        </mxCell>
        <mxCell id="42dbZu4mk9yZ3GS8qLwK-84" value="" style="edgeStyle=none;orthogonalLoop=1;jettySize=auto;html=1;rounded=0;entryX=1;entryY=0.5;entryDx=0;entryDy=0;endArrow=none;endFill=0;exitX=0;exitY=0.5;exitDx=0;exitDy=0;" edge="1" parent="1" source="42dbZu4mk9yZ3GS8qLwK-82" target="42dbZu4mk9yZ3GS8qLwK-52">
          <mxGeometry width="100" relative="1" as="geometry">
            <mxPoint x="1161" y="391" as="sourcePoint" />
            <mxPoint x="1139" y="328" as="targetPoint" />
            <Array as="points" />
          </mxGeometry>
        </mxCell>
        <mxCell id="42dbZu4mk9yZ3GS8qLwK-85" value="1" style="text;html=1;align=center;verticalAlign=middle;resizable=0;points=[];autosize=1;strokeColor=none;fillColor=none;" vertex="1" parent="1">
          <mxGeometry x="1003" y="260" width="30" height="30" as="geometry" />
        </mxCell>
        <mxCell id="42dbZu4mk9yZ3GS8qLwK-86" value="N" style="text;html=1;align=center;verticalAlign=middle;resizable=0;points=[];autosize=1;strokeColor=none;fillColor=none;" vertex="1" parent="1">
          <mxGeometry x="1147.5" y="350" width="30" height="30" as="geometry" />
        </mxCell>
        <mxCell id="42dbZu4mk9yZ3GS8qLwK-87" value="G" style="rhombus;whiteSpace=wrap;html=1;" vertex="1" parent="1">
          <mxGeometry x="795" y="330" width="50" height="50" as="geometry" />
        </mxCell>
        <mxCell id="42dbZu4mk9yZ3GS8qLwK-88" value="" style="edgeStyle=none;orthogonalLoop=1;jettySize=auto;html=1;rounded=0;entryX=0.5;entryY=1;entryDx=0;entryDy=0;endArrow=none;endFill=0;exitX=0.5;exitY=0;exitDx=0;exitDy=0;" edge="1" parent="1" source="42dbZu4mk9yZ3GS8qLwK-87" target="42dbZu4mk9yZ3GS8qLwK-41">
          <mxGeometry width="100" relative="1" as="geometry">
            <mxPoint x="865" y="498" as="sourcePoint" />
            <mxPoint x="1013" y="477" as="targetPoint" />
            <Array as="points" />
          </mxGeometry>
        </mxCell>
        <mxCell id="42dbZu4mk9yZ3GS8qLwK-89" value="" style="edgeStyle=none;orthogonalLoop=1;jettySize=auto;html=1;rounded=0;entryX=0.5;entryY=1;entryDx=0;entryDy=0;endArrow=none;endFill=0;exitX=0.5;exitY=0;exitDx=0;exitDy=0;" edge="1" parent="1" source="42dbZu4mk9yZ3GS8qLwK-58" target="42dbZu4mk9yZ3GS8qLwK-87">
          <mxGeometry width="100" relative="1" as="geometry">
            <mxPoint x="830" y="340" as="sourcePoint" />
            <mxPoint x="827" y="260" as="targetPoint" />
            <Array as="points" />
          </mxGeometry>
        </mxCell>
        <mxCell id="42dbZu4mk9yZ3GS8qLwK-90" value="g1" style="ellipse;whiteSpace=wrap;html=1;align=center;" vertex="1" parent="1">
          <mxGeometry x="710" y="320" width="56" height="40" as="geometry" />
        </mxCell>
        <mxCell id="42dbZu4mk9yZ3GS8qLwK-91" value="g2" style="ellipse;whiteSpace=wrap;html=1;align=center;" vertex="1" parent="1">
          <mxGeometry x="710" y="380" width="56" height="40" as="geometry" />
        </mxCell>
        <mxCell id="42dbZu4mk9yZ3GS8qLwK-92" value="" style="edgeStyle=none;orthogonalLoop=1;jettySize=auto;html=1;rounded=0;entryX=1;entryY=0.5;entryDx=0;entryDy=0;endArrow=none;endFill=0;exitX=0;exitY=0;exitDx=0;exitDy=0;" edge="1" parent="1" source="42dbZu4mk9yZ3GS8qLwK-87" target="42dbZu4mk9yZ3GS8qLwK-90">
          <mxGeometry width="100" relative="1" as="geometry">
            <mxPoint x="830" y="478" as="sourcePoint" />
            <mxPoint x="830" y="390" as="targetPoint" />
            <Array as="points" />
          </mxGeometry>
        </mxCell>
        <mxCell id="42dbZu4mk9yZ3GS8qLwK-93" value="" style="edgeStyle=none;orthogonalLoop=1;jettySize=auto;html=1;rounded=0;entryX=1;entryY=0;entryDx=0;entryDy=0;endArrow=none;endFill=0;exitX=0;exitY=1;exitDx=0;exitDy=0;" edge="1" parent="1" source="42dbZu4mk9yZ3GS8qLwK-87" target="42dbZu4mk9yZ3GS8qLwK-91">
          <mxGeometry width="100" relative="1" as="geometry">
            <mxPoint x="818" y="353" as="sourcePoint" />
            <mxPoint x="776" y="350" as="targetPoint" />
            <Array as="points" />
          </mxGeometry>
        </mxCell>
        <mxCell id="42dbZu4mk9yZ3GS8qLwK-94" value="N" style="text;html=1;align=center;verticalAlign=middle;resizable=0;points=[];autosize=1;strokeColor=none;fillColor=none;" vertex="1" parent="1">
          <mxGeometry x="815" y="438" width="30" height="30" as="geometry" />
        </mxCell>
        <mxCell id="42dbZu4mk9yZ3GS8qLwK-95" value="N" style="text;html=1;align=center;verticalAlign=middle;resizable=0;points=[];autosize=1;strokeColor=none;fillColor=none;" vertex="1" parent="1">
          <mxGeometry x="815" y="250" width="30" height="30" as="geometry" />
        </mxCell>
        <mxCell id="42dbZu4mk9yZ3GS8qLwK-96" value="1" style="text;html=1;align=center;verticalAlign=middle;resizable=0;points=[];autosize=1;strokeColor=none;fillColor=none;" vertex="1" parent="1">
          <mxGeometry x="225" y="208" width="30" height="30" as="geometry" />
        </mxCell>
      </root>
    </mxGraphModel>
  </diagram>
</mxfile>
